<?xml version="1.0" encoding="utf-8"?>
<!-- Generator: Adobe Illustrator 15.1.0, SVG Export Plug-In . SVG Version: 6.00 Build 0)  -->
<!DOCTYPE svg PUBLIC "-//W3C//DTD SVG 1.1//EN" "http://www.w3.org/Graphics/SVG/1.1/DTD/svg11.dtd">
<svg version="1.1" id="Layer_1" xmlns="http://www.w3.org/2000/svg" xmlns:xlink="http://www.w3.org/1999/xlink" x="0px" y="0px"
	 width="300px" height="100px" viewBox="0 0 300 100" enable-background="new 0 0 300 100" xml:space="preserve">
<path fill="none" stroke="#2563EB" stroke-width="8" stroke-linecap="round" d="M50,40V30c0-11.046,8.954-20,20-20s20,8.954,20,20
	v10"/>
<path fill="#1E293B" d="M45,40h50c5.523,0,10,4.477,10,10v30c0,5.523-4.477,10-10,10H45c-5.523,0-10-4.477-10-10V50
	C35,44.477,39.477,40,45,40z"/>
<circle fill="#10B981" cx="55" cy="65" r="4"/>
<circle fill="#10B981" cx="70" cy="65" r="4"/>
<circle fill="#10B981" cx="85" cy="65" r="4"/>
<g enable-background="new    ">
	<path fill="#1E293B" d="M122.619,68V42.23h8.35c3.164,0,5.227,0.129,6.188,0.387c1.477,0.387,2.713,1.228,3.709,2.522
		s1.494,2.968,1.494,5.019c0,1.582-0.287,2.912-0.861,3.99s-1.304,1.925-2.188,2.54s-1.784,1.022-2.698,1.222
		c-1.242,0.246-3.041,0.369-5.396,0.369h-3.393V68H122.619z M127.822,46.59v7.313h2.848c2.051,0,3.422-0.135,4.113-0.404
		s1.233-0.691,1.626-1.266s0.589-1.242,0.589-2.004c0-0.938-0.275-1.711-0.826-2.32s-1.248-0.99-2.092-1.143
		c-0.621-0.117-1.869-0.176-3.744-0.176H127.822z"/>
	<path fill="#1E293B" d="M150.287,68l-6.152-25.77h5.326l3.885,17.701l4.711-17.701h6.188l4.518,18l3.955-18h5.238L171.697,68h-5.52
		l-5.133-19.266L155.93,68H150.287z"/>
</g>
<g enable-background="new    ">
	<path fill="#2563EB" d="M194.684,58.525v-4.342h11.215v10.266c-1.09,1.055-2.669,1.983-4.737,2.786s-4.163,1.204-6.284,1.204
		c-2.695,0-5.045-0.565-7.049-1.696s-3.51-2.748-4.518-4.852s-1.512-4.392-1.512-6.864c0-2.684,0.563-5.068,1.688-7.154
		s2.771-3.686,4.939-4.799c1.652-0.855,3.709-1.283,6.17-1.283c3.199,0,5.698,0.671,7.497,2.013s2.956,3.196,3.472,5.563
		l-5.168,0.967c-0.363-1.266-1.046-2.265-2.048-2.997s-2.253-1.099-3.753-1.099c-2.273,0-4.081,0.721-5.423,2.162
		s-2.013,3.58-2.013,6.416c0,3.059,0.68,5.353,2.039,6.882s3.141,2.294,5.344,2.294c1.09,0,2.183-0.214,3.278-0.642
		s2.036-0.946,2.821-1.556v-3.27H194.684z"/>
	<path fill="#2563EB" d="M221.473,62.059l4.922,0.826c-0.633,1.805-1.632,3.179-2.997,4.122s-3.073,1.415-5.124,1.415
		c-3.246,0-5.648-1.061-7.207-3.182c-1.23-1.699-1.846-3.844-1.846-6.434c0-3.094,0.809-5.517,2.426-7.269s3.662-2.628,6.135-2.628
		c2.777,0,4.969,0.917,6.574,2.751s2.373,4.644,2.303,8.429h-12.375c0.035,1.465,0.434,2.604,1.195,3.419s1.711,1.222,2.848,1.222
		c0.773,0,1.424-0.211,1.951-0.633S221.203,62.996,221.473,62.059z M221.754,57.066c-0.035-1.43-0.404-2.517-1.107-3.261
		s-1.559-1.116-2.566-1.116c-1.078,0-1.969,0.393-2.672,1.178s-1.049,1.852-1.037,3.199H221.754z"/>
	<path fill="#2563EB" d="M247.664,68h-4.939v-9.527c0-2.016-0.105-3.319-0.316-3.911s-0.554-1.052-1.028-1.38
		s-1.046-0.492-1.714-0.492c-0.855,0-1.623,0.234-2.303,0.703s-1.146,1.09-1.397,1.863s-0.378,2.203-0.378,4.289V68h-4.939V49.332
		h4.588v2.742c1.629-2.109,3.68-3.164,6.152-3.164c1.09,0,2.086,0.196,2.988,0.589s1.585,0.894,2.048,1.503s0.785,1.301,0.967,2.074
		s0.272,1.881,0.272,3.322V68z"/>
</g>
</svg>
